<?xml version="1.0" encoding="utf-8"?>
<!-- Generator: Adobe Illustrator 16.0.0, SVG Export Plug-In . SVG Version: 6.00 Build 0)  -->
<!DOCTYPE svg PUBLIC "-//W3C//DTD SVG 1.1//EN" "http://www.w3.org/Graphics/SVG/1.1/DTD/svg11.dtd">
<svg version="1.1" id="Layer_1" xmlns="http://www.w3.org/2000/svg" xmlns:xlink="http://www.w3.org/1999/xlink" x="0px" y="0px"
	 width="147.563px" height="160.058px" viewBox="0 0 147.563 160.058" enable-background="new 0 0 147.563 160.058"
	 xml:space="preserve">
<g>
	<path fill="#E30613" d="M146.976,67.604c-1.482-5.434-6.613-7.908-10.753-7.908h-19.89c-0.052-11.179-0.104-19.294-0.11-20.292
		h-0.009c3.777-4.184,6.079-9.726,6.079-15.807C122.292,10.564,111.727,0,98.694,0c-4.805,0-9.272,1.439-13,3.906
		C81.966,1.439,77.5,0,72.694,0c-4.3,0-8.327,1.155-11.798,3.164C57.424,1.155,53.397,0,49.097,0c-4.699,0-9.072,1.379-12.75,3.745
		C32.669,1.379,28.296,0,23.597,0C10.564,0,0,10.564,0,23.597c0,6.919,2.978,13.143,7.722,17.458v93.122l0.163,0.713
		c2.092,9.18,9.758,24.788,25.225,25.055c4.915,0.085,12.978,0.113,21.541,0.113c16.543,0,34.95-0.105,36.109-0.112l0.575-0.029
		c8.377-0.792,24.36-7.148,24.885-25.535c0.023-0.794,0.043-1.709,0.062-2.728c20.094-0.051,28.909-16.508,30.807-26.099
		l0.117-0.592l0.014-0.604C147.995,71.339,147.254,68.625,146.976,67.604z M23.604,13.972c3.074,0,5.805,1.446,7.567,3.688v-0.01
		c0,0,1.441,0.82,2.642,1.705s3.466,0.831,4.552,0.293c1.07-0.53,2.523-1.575,2.523-1.575l0,0.01
		c1.741-2.483,4.619-4.111,7.882-4.111c3.074,0,5.805,1.446,7.567,3.688v-0.01c0,0,1.441,0.82,2.642,1.705s3.466,0.831,4.552,0.293
		c0.699-0.347,1.555-0.908,2.069-1.259c1.714-2.656,4.692-4.418,8.087-4.418c3.104,0,5.856,1.476,7.617,3.756
		c0.37,0.216,1.516,0.896,2.509,1.628c1.201,0.885,3.466,0.831,4.552,0.293c0.865-0.429,1.968-1.186,2.364-1.463
		c1.732-2.543,4.65-4.214,7.959-4.214c5.316,0,9.625,4.309,9.625,9.625s-4.309,9.625-9.625,9.625c-2.909,0-5.51-1.296-7.275-3.335
		l-2.267-1.573c-1.781-1.259-5.188-0.915-6.057-0.197c-0.646,0.533-1.519,1.221-1.926,1.538c-1.765,2.176-4.457,3.567-7.476,3.567
		c-3.041,0-5.748-1.413-7.511-3.615l-1.864-1.293c-1.781-1.259-5.188-0.915-6.057-0.197s-2.153,1.716-2.153,1.716v-0.008
		c-1.765,2.076-4.393,3.397-7.332,3.397c-2.852,0-5.406-1.247-7.169-3.218l0.001,0.015l-2.457-1.705
		c-1.781-1.259-5.188-0.915-6.057-0.197s-2.153,1.716-2.153,1.716v-0.008c-1.765,2.076-4.393,3.397-7.332,3.397
		c-5.316,0-9.625-4.309-9.625-9.625S18.288,13.972,23.604,13.972z M103.225,134.01c-0.307,10.759-10.87,12.671-12.894,12.938
		c-4.155,0.022-43.43,0.233-56.996-0.001c-7.992-0.138-11.811-11.6-12.612-14.355V47.013c0.943,0.114,1.901,0.181,2.875,0.181
		c4.699,0,9.072-1.379,12.75-3.745c3.678,2.366,8.051,3.745,12.75,3.745c4.3,0,8.327-1.155,11.799-3.164
		c3.471,2.009,7.499,3.164,11.798,3.164c4.805,0,9.272-1.439,13-3.906c3.728,2.467,8.195,3.906,13,3.906
		c1.564,0,3.091-0.156,4.57-0.446C103.374,66.378,103.625,119.978,103.225,134.01z M133.241,103.281
		c-0.359,1.325-1.555,5.1-4.265,8.434c-3.165,3.893-7.304,5.845-12.561,5.922c0.057-12.666,0.027-29.275-0.025-43.941h17.117
		C133.638,79.45,133.501,91.908,133.241,103.281z"/>
	<path fill="#E30613" d="M45.75,67.53c0-4.097-3.32-7.417-7.417-7.417s-7.417,3.32-7.417,7.417v56.724h0.167
		c0.716,3.348,3.688,5.859,7.25,5.859s6.534-2.512,7.25-5.859h0.003v-0.012c0.105-0.499,0.164-1.015,0.164-1.545
		s-0.058-1.047-0.164-1.545V69.075C45.692,68.576,45.75,68.061,45.75,67.53z"/>
	<path fill="#E30613" d="M69.417,67.53c0-4.097-3.32-7.417-7.417-7.417s-7.417,3.32-7.417,7.417v56.724h0.167
		c0.716,3.348,3.688,5.859,7.25,5.859s6.534-2.512,7.25-5.859h0.003v-0.012c0.105-0.499,0.164-1.015,0.164-1.545
		s-0.058-1.047-0.164-1.545V69.075C69.359,68.576,69.417,68.061,69.417,67.53z"/>
	<path fill="#E30613" d="M93.25,67.53c0-4.097-3.32-7.417-7.417-7.417s-7.417,3.32-7.417,7.417v56.724h0.167
		c0.716,3.348,3.688,5.859,7.25,5.859s6.534-2.512,7.25-5.859h0.003v-0.012c0.105-0.499,0.164-1.015,0.164-1.545
		s-0.058-1.047-0.164-1.545V69.075C93.192,68.576,93.25,68.061,93.25,67.53z"/>
</g>
</svg>
