<?xml version="1.0" encoding="utf-8"?>
<!-- Generator: Adobe Illustrator 16.0.0, SVG Export Plug-In . SVG Version: 6.00 Build 0)  -->
<!DOCTYPE svg PUBLIC "-//W3C//DTD SVG 1.1//EN" "http://www.w3.org/Graphics/SVG/1.1/DTD/svg11.dtd">
<svg version="1.1" id="Layer_1" xmlns="http://www.w3.org/2000/svg" xmlns:xlink="http://www.w3.org/1999/xlink" x="0px" y="0px"
	 width="164.283px" height="157.521px" viewBox="0 0 164.283 157.521" enable-background="new 0 0 164.283 157.521"
	 xml:space="preserve">
<g>
	
		<rect x="57.548" y="46.984" transform="matrix(-0.3603 -0.9328 0.9328 -0.3603 -12.8114 228.1309)" fill="#E30613" width="28.53" height="142.949"/>
	
		<rect x="141.786" y="73.214" transform="matrix(0.9328 -0.3603 0.3603 0.9328 -21.3932 60.201)" fill="#E30613" width="17.959" height="28.529"/>
	<path fill="#E30613" d="M119.984,39.746c1.706,0.894,3.371,1.688,4.98,2.456c5.515,2.629,9.87,4.707,11.164,8.47
		c0.982,2.857,0.365,6.23-2.455,12.075c-0.617,1.593,1.695,2.78,2.684,1.342c3.19-6.595,3.883-10.683,2.608-14.392
		c-1.703-4.954-6.804-7.386-12.709-10.203c-1.585-0.756-3.224-1.537-4.878-2.405c-2.731-1.432-4.45-3.417-5.109-5.898
		c-1.467-5.52,2.43-11.693,2.592-11.964c0.93-1.528-1.477-3.09-2.525-1.62c-0.345,0.908-4.769,7.533-2.97,14.339
		C114.247,35.28,116.475,37.904,119.984,39.746z"/>
	<path fill="#E30613" d="M135.451,33.068c1.832,0.632,3.314-1.526,1.127-2.78c-5.103-2.025-8.562-4.865-9.611-8.042
		c-1.051-3.176,0.486-5.754,0.547-5.854l0.064-0.113c2.944-5.753,3.814-10.221,2.584-13.281c-0.888-2.208-2.6-2.842-2.74-2.904
		c-1.506-0.614-2.615,1.964-1.029,2.817c0.254,0.16,0.662,0.297,1.033,1.332c0.452,1.259,0.727,4.313-2.496,10.625
		c-0.32,0.546-2.203,4.02-0.832,8.256C125.416,27.204,129.236,30.549,135.451,33.068z"/>
</g>
</svg>
